<svg width="540" height="540" viewBox="0 0 540 540" fill="none" xmlns="http://www.w3.org/2000/svg">
<path fill-rule="evenodd" clip-rule="evenodd" d="M270 14C128.56 14 14 131.458 14 276.475C14 392.621 87.28 490.721 189.04 525.499C201.84 527.795 206.64 519.921 206.64 513.031C206.64 506.797 206.32 486.127 206.32 464.145C142 476.284 125.36 448.068 120.24 433.304C117.36 425.758 104.88 402.463 94 396.23C85.04 391.308 72.24 379.169 93.68 378.841C113.84 378.512 128.24 397.87 133.04 405.744C156.08 445.444 192.88 434.288 207.6 427.398C209.84 410.338 216.56 398.854 223.92 392.292C166.96 385.731 107.44 363.092 107.44 262.695C107.44 234.151 117.36 210.528 133.68 192.155C131.12 185.593 122.16 158.689 136.24 122.599C136.24 122.599 157.68 115.709 206.64 149.503C227.12 143.597 248.88 140.644 270.64 140.644C292.4 140.644 314.16 143.597 334.64 149.503C383.6 115.381 405.04 122.599 405.04 122.599C419.12 158.689 410.16 185.593 407.6 192.155C423.92 210.528 433.84 233.823 433.84 262.695C433.84 363.42 374 385.731 317.04 392.292C326.32 400.495 334.32 416.243 334.32 440.85C334.32 475.956 334 504.172 334 513.031C334 519.921 338.8 528.123 351.6 525.499C402.421 507.907 446.581 474.421 477.867 429.748C509.153 385.077 525.987 331.472 526 276.475C526 131.458 411.44 14 270 14Z" stroke="#151E3D" stroke-width="28" stroke-linejoin="round"/>
</svg>