<svg width="512" height="512" viewBox="0 0 512 512" fill="none" xmlns="http://www.w3.org/2000/svg">
<path d="M256 0C114.6 0 0 114.6 0 256C0 397.4 114.6 512 256 512C397.4 512 512 397.4 512 256C512 114.6 397.4 0 256 0ZM415.8 415.7C395 436.5 370.9 452.8 344 464.1C316.2 475.9 286.6 481.8 256 481.8C225.5 481.8 195.9 475.8 168 464.1C141.1 452.7 116.9 436.4 96.2 415.7C75.4 394.9 59.1 370.8 47.8 343.9C36 316.1 30 286.5 30 256C30 225.5 36 195.9 47.7 168C59.1 141.1 75.4 116.9 96.1 96.2C117 75.4 141.1 59.1 168 47.7C195.9 36 225.5 30 256 30C286.5 30 316.1 36 344 47.7C370.9 59.1 395.1 75.4 415.8 96.1C436.6 116.9 452.9 141 464.2 167.9C476 195.7 481.9 225.3 481.9 255.9C481.9 286.4 475.9 316 464.2 343.9C452.8 370.8 436.5 395 415.8 415.7Z" fill="#151E3D"/>
<path d="M111 179.258V344.499C111 355.269 119.742 364 130.527 364H177.392V252.954L255.5 311.999L333.608 252.954V364H380.473C391.258 364 400 355.269 400 344.499V179.258C400 153.452 370.417 138.801 349.847 154.422L255.5 226.06L161.153 154.424C140.583 138.801 111 153.452 111 179.258Z" stroke="#151E3D" stroke-width="28" stroke-linejoin="round"/>
</svg>